<?xml version="1.0" encoding="UTF-8"?>
<!-- Generator: Adobe Illustrator 16.0.0, SVG Export Plug-In . SVG Version: 6.00 Build 0)  -->
<!DOCTYPE svg PUBLIC "-//W3C//DTD SVG 1.1//EN" "http://www.w3.org/Graphics/SVG/1.1/DTD/svg11.dtd">
<svg version="1.1" id="Capa_1" xmlns="http://www.w3.org/2000/svg" xmlns:xlink="http://www.w3.org/1999/xlink" x="0px" y="0px" width="240px" height="68.333px" viewBox="0 0 240 68.333" enable-background="new 0 0 240 68.333" xml:space="preserve">
<path fill-rule="evenodd" clip-rule="evenodd" fill="#FFFFFF" d="M224.516,22.175c1.101-0.745,2.017-1.147,2.585-1.128  c0.339,0.017,0.739,0.116,0.739,0.537c0,0.435-0.405,0.79-1.203,1.081c-0.7,0.249-1.771,0.317-2.94,0.181  C224.019,22.551,224.286,22.329,224.516,22.175 M209.04,23.541c-0.681-0.043-1.016-0.322-1.016-0.854  c0-0.072,0.045-1.751,3.871-1.943c0.435-0.024,0.925-0.037,1.665,0.047c-0.032,0-0.433,0.372-0.433,0.372l-0.239,0.221  C211.963,22.225,210.425,23.637,209.04,23.541z M217.315,17.179c-0.466,0.407-1.379,1.294-2.267,2.149l-1.002,0.973  c-0.816-0.149-1.631-0.222-2.46-0.222c-1.856,0-3.562,0.512-4.332,1.314c-0.298,0.309-0.445,0.639-0.44,0.986  c0.021,0.907,1.049,1.362,1.363,1.483c1.65,0.62,3.035,0.439,4.49-0.584c0.804-0.566,1.768-1.479,2.519-2.207  c0.59,0.135,1.259,0.31,1.974,0.519l0.662,0.198c-0.857,0.848-1.737,1.742-2.553,2.467l-0.061,0.053  c-1.134,1.011-1.951,1.739-3.136,2.005c-0.835,0.185-1.425,0.008-1.619-0.11c-0.015,0-0.047,0.037-0.047,0.037  c0.686,0.569,1.334,0.893,2.453,0.794c1.062-0.094,2.286-0.767,3.546-1.954l1.695-1.678l1.184-1.184  c0,0.003,2.399,0.705,2.399,0.705c0.019,0.007,0.044,0.014,0.044,0.014c-0.025,0-1.484,1.455-1.484,1.455l-1.275,1.284  c-1.307,1.279-2.019,1.941-2.783,2.486c-1.262,0.904-2.342,1.375-3.295,1.439c-0.491,0.03-1.201,0-1.798-0.354  c-0.025-0.002-0.059,0.028-0.059,0.028c0.645,0.559,1.432,1.223,2.797,1.184c1.537-0.04,2.896-0.79,5.019-2.755  c0.97-0.894,1.93-1.899,2.781-2.783l1.573-1.608c1.037,0.229,1.967,0.325,2.995,0.304c1.492-0.029,2.769-0.751,2.785-1.577  c0.015-0.607-0.486-0.934-0.782-1.126c-0.244-0.16-0.914-0.536-1.837-0.536c-1.121,0-2.286,0.499-3.471,1.482l-0.791,0.698  c0.012,0-0.292-0.079-0.292-0.079l-2.193-0.619c0.648-0.609,1.198-1.133,1.696-1.579c1.199-1.074,2.532-1.52,3.307-1.567  c0.566-0.041,1.553,0.008,1.955,0.301c0.021-0.006,0.049-0.045,0.049-0.045c-1.083-0.934-2.017-1.053-2.787-1.053  c-0.758,0-1.98,0.243-3.472,1.409c-0.609,0.475-1.397,1.266-2.226,2.108c0-0.002-1.108-0.338-1.108-0.338l-0.271-0.09  c0,0-1.163-0.354-1.168-0.354c0.027-0.001,0.667-0.636,0.667-0.636c0.786-0.775,1.526-1.511,2.106-2.001  c2.104-1.789,3.434-2.017,4.355-2.023c1.008-0.005,1.81,0.204,2.382,0.623c0.018-0.004,0.044-0.042,0.044-0.042  c-1.181-1.08-2.032-1.422-3.503-1.438C220.358,15.129,218.82,15.848,217.315,17.179z"/>
<path fill-rule="evenodd" clip-rule="evenodd" fill="#FFFFFF" d="M228.626,36.467c-0.7,0.572-1.458,1.098-2.274,1.564  c-6.99,4.002-15.746,2.471-20.759-3.251c4.479,4.577,11.562,6.021,17.692,3.46l0.077-0.033c0.088-0.039,0.178-0.078,0.268-0.117  l0.101-0.044c0.081-0.037,0.16-0.074,0.241-0.112l0.114-0.055c0.082-0.039,0.161-0.08,0.24-0.119l0.103-0.052  c0.082-0.042,0.163-0.083,0.245-0.129l0.098-0.052c0.113-0.061,0.226-0.121,0.334-0.186c0.119-0.068,0.235-0.136,0.352-0.206  c0.115-0.071,0.229-0.142,0.343-0.213c0.112-0.073,0.225-0.146,0.335-0.221c0.111-0.074,0.219-0.151,0.328-0.228  c0.107-0.078,0.215-0.155,0.32-0.235c0.198-0.148,0.391-0.299,0.579-0.454L228.626,36.467z"/>
<path fill="#FFFFFF" d="M218.783,7.598l0.717-4.066l1.238,0.218L221,6.987l1.345-2.955l1.242,0.219l-0.72,4.067l-0.782-0.138  l0.577-3.28l-1.402,3.134l-0.856-0.151l-0.259-3.428l-0.578,3.279L218.783,7.598z M214.02,3.949l0.966-0.17l2.184,3.808  l-0.878,0.155l-0.423-0.788l-1.576,0.278l-0.12,0.883l-0.881,0.156L214.02,3.949z M214.65,4.677l-0.258,1.83l1.129-0.199  L214.65,4.677z M209.355,10.417l-2.001-3.611l2.621-1.455l0.35,0.628l-1.891,1.048l0.429,0.77l1.727-0.958l0.344,0.617l-1.73,0.958  l0.516,0.928l1.979-1.097l0.369,0.667L209.355,10.417z M206.771,13.103l-2.561-2.226l-0.804,0.925l-0.557-0.485l2.16-2.483  l0.556,0.485l-0.797,0.917l2.559,2.226L206.771,13.103z M204.327,17.849l-0.154,0.541l-1.59-0.456l-2.802,0.789l0.194-0.676  l2.182-0.523l-1.576-1.593l0.181-0.633l1.938,2.083L204.327,17.849z M203.792,23.905l-4.128,0.072l-0.009-0.555l1.993-0.035  l-2.027-1.952l-0.013-0.746l1.682,1.659l2.445-1.779l0.012,0.696l-2.046,1.48l0.638,0.629l1.444-0.025L203.792,23.905z   M204.013,29.138l-0.194-0.505c0.279-0.113,0.465-0.291,0.562-0.535c0.096-0.244,0.087-0.517-0.029-0.818  c-0.116-0.3-0.268-0.511-0.46-0.634c-0.191-0.124-0.395-0.145-0.612-0.061c-0.293,0.113-0.396,0.521-0.3,1.226  c0.007,0.042,0.011,0.074,0.014,0.098c0.075,0.571,0.07,0.97-0.017,1.196c-0.089,0.228-0.272,0.396-0.555,0.503  c-0.343,0.131-0.668,0.112-0.974-0.06c-0.303-0.171-0.536-0.464-0.695-0.882c-0.164-0.426-0.185-0.804-0.059-1.132  c0.125-0.327,0.377-0.566,0.759-0.717l0.194,0.499c-0.251,0.117-0.417,0.282-0.493,0.492c-0.077,0.211-0.063,0.454,0.042,0.726  c0.098,0.257,0.232,0.439,0.404,0.551c0.171,0.11,0.352,0.129,0.539,0.058c0.297-0.114,0.399-0.517,0.301-1.209  c-0.014-0.103-0.022-0.182-0.031-0.237l-0.008-0.06c-0.059-0.454-0.057-0.771,0.005-0.951c0.046-0.137,0.124-0.256,0.227-0.357  c0.105-0.104,0.233-0.183,0.388-0.242c0.372-0.143,0.719-0.124,1.041,0.059c0.32,0.181,0.567,0.5,0.744,0.953  c0.178,0.467,0.201,0.877,0.063,1.229C204.731,28.679,204.447,28.948,204.013,29.138z"/>
<path fill="#FFFFFF" d="M231.577,31.082c0.511,0.429,0.8,0.908,0.865,1.438c0.064,0.53-0.098,1.032-0.495,1.504  c-0.396,0.472-0.862,0.722-1.397,0.75c-0.536,0.029-1.059-0.172-1.569-0.6c-0.509-0.427-0.798-0.908-0.862-1.44  c-0.066-0.532,0.1-1.034,0.496-1.506c0.396-0.472,0.861-0.721,1.396-0.748C230.546,30.453,231.066,30.653,231.577,31.082   M231.021,31.745c-0.349-0.292-0.685-0.442-1.008-0.448c-0.321-0.007-0.599,0.129-0.832,0.407c-0.235,0.281-0.323,0.58-0.261,0.897  c0.061,0.319,0.267,0.623,0.614,0.915c0.35,0.292,0.683,0.441,1.008,0.447c0.322,0.006,0.603-0.132,0.839-0.414  c0.233-0.277,0.318-0.574,0.256-0.891C231.573,32.342,231.37,32.038,231.021,31.745z M231.461,28.011  c-0.149-0.209-0.24-0.421-0.274-0.638c-0.03-0.216-0.006-0.449,0.075-0.7c0.18-0.548,0.513-0.931,1.004-1.148  c0.493-0.217,1.052-0.223,1.671-0.022c0.627,0.203,1.071,0.537,1.336,0.998c0.265,0.461,0.305,0.975,0.122,1.54  c-0.16,0.492-0.409,0.855-0.745,1.09c-0.338,0.234-0.72,0.314-1.152,0.239l0.269-0.825c0.22,0.017,0.408-0.033,0.564-0.153  c0.155-0.119,0.273-0.303,0.355-0.549c0.106-0.33,0.069-0.626-0.11-0.892c-0.179-0.266-0.482-0.468-0.907-0.606  c-0.425-0.138-0.792-0.149-1.097-0.033c-0.307,0.118-0.514,0.347-0.624,0.688c-0.084,0.255-0.078,0.494,0.017,0.716  c0.096,0.221,0.27,0.395,0.519,0.522l0.288-0.89l0.673,0.218l-0.528,1.627l-2.125-0.691l0.174-0.542L231.461,28.011z   M232.134,20.116l4.126-0.144l0.069,2.002c0.017,0.45-0.069,0.787-0.253,1.01c-0.186,0.223-0.475,0.341-0.872,0.356  c-0.25,0.009-0.463-0.037-0.635-0.137c-0.172-0.1-0.293-0.248-0.36-0.443c-0.059,0.181-0.15,0.312-0.278,0.394  c-0.129,0.08-0.331,0.13-0.607,0.151l-0.485,0.035c-0.003,0-0.01,0-0.018,0.001c-0.246,0.013-0.395,0.072-0.442,0.174l-0.126,0.004  l-0.033-0.931c0.058-0.031,0.129-0.055,0.212-0.076c0.085-0.018,0.188-0.032,0.304-0.038l0.435-0.026  c0.254-0.02,0.426-0.074,0.511-0.164c0.087-0.09,0.128-0.249,0.119-0.475l-0.032-0.899l-1.604,0.056L232.134,20.116z   M234.485,20.885l0.033,0.999c0.008,0.216,0.059,0.373,0.15,0.473c0.092,0.098,0.231,0.144,0.42,0.136  c0.179-0.005,0.312-0.06,0.401-0.161c0.091-0.102,0.13-0.251,0.124-0.446l-0.035-1.038L234.485,20.885z M234.947,14.97l0.368,0.91  l-3.272,2.928l-0.332-0.827l0.683-0.578l-0.602-1.483l-0.889,0.064l-0.334-0.83L234.947,14.97z M234.367,15.737l-1.845,0.127  l0.43,1.064L234.367,15.737z M231.13,13.298c-0.373,0.283-0.774,0.391-1.2,0.324c-0.425-0.067-0.813-0.302-1.16-0.703  c-0.4-0.461-0.568-0.945-0.502-1.451c0.063-0.506,0.355-0.985,0.877-1.437c0.528-0.46,1.049-0.682,1.558-0.667  c0.509,0.014,0.977,0.268,1.402,0.757c0.346,0.398,0.522,0.796,0.527,1.196c0.007,0.398-0.156,0.765-0.49,1.094l-0.55-0.632  c0.151-0.181,0.223-0.37,0.214-0.567s-0.099-0.396-0.272-0.594c-0.246-0.282-0.523-0.417-0.833-0.406s-0.639,0.168-0.988,0.472  c-0.339,0.294-0.536,0.595-0.596,0.902c-0.057,0.307,0.03,0.595,0.265,0.865c0.17,0.195,0.358,0.31,0.565,0.348  c0.208,0.039,0.421-0.006,0.64-0.132L231.13,13.298z"/>
<path fill-rule="evenodd" clip-rule="evenodd" fill="#E2231A" d="M189.943,54.264c0,0-13.123,5.177-34.146,5.177  c-12.801,0-24.073-1.743-34.867-4.141c-12.611-2.807-27.755-6.731-45.837-6.731c-19.51,0-32.208,5.367-32.208,5.367  s16.051-3.815,32.099-3.815c14.483,0,27.346,2.609,38.861,5.304c13.071,3.056,23.032,5.354,40.321,5.354  C175.854,60.778,189.943,54.264,189.943,54.264"/>
<path fill-rule="evenodd" clip-rule="evenodd" fill="#FFFFFF" d="M14.925,33.855l-0.002,1.786h10.844  c0.5-0.512,1.143-1.438,1.312-1.777L14.925,33.855z M24.937,30.789H8.964v1.77h18.744c0,0,0.676-1.572,0.676-3.302  c0-0.092,0.004-12.046,0.004-12.046c0-0.944,0.39-2.557,2.337-2.976c0.059-0.013,0.113-0.026,0.166-0.04  c5.534-1.311,11.232-0.119,14.448,1.273c0.583,0.273,0.715-0.185,0.694-0.381c0.071-2.706-1.988-5.787-5.775-5.977  c-3.071-0.067-4.776,1.035-5.406,1.337c-0.046,0.025-0.124,0.014-0.192-0.067c-0.571-0.557-1.781-1.389-3.142-1.782  c-0.205-0.04-0.218-0.341,0.014-0.368c2.907-0.313,5.457,0.013,6.518,0.186c0.243,0.045,0.426-0.1,0.331-0.33  c-0.072-0.169-0.138-0.249-0.259-0.51c-0.258-0.551-0.947-1.147-1.811-1.391c-2.291-0.641-6.187-1.179-9.654-1.205h-0.183H26.29  c-3.795,0.024-7.689,0.768-8.695,0.982c-0.253,0.059-0.602,0.146-0.663,0.159c-0.285,0.064-0.351,0.327-0.226,0.464  c0.074,0.085,0.287,0.27,0.392,0.388c0.13,0.164,0.19,0.392-0.059,0.627l-7.222,6.49h4.94h0.062c0.323-0.014,0.623,0.29,0.623,0.656  c0.004,0.328-0.264,0.641-0.599,0.641h-0.045H8.378l-1.963,1.796h8.404l0.045-0.005c0.332,0.005,0.588,0.341,0.584,0.654  c-0.008,0.289-0.244,0.636-0.584,0.636l-0.047,0.007H4.973L3.004,20.25h16.977h0.054c0.334,0,0.595,0.343,0.6,0.643  c0.005,0.354-0.241,0.667-0.584,0.667h-0.048H3.004v1.772h16.962h0.054c0.391,0,0.609,0.354,0.609,0.682  c0,0.288-0.285,0.602-0.618,0.602l-0.045,0.013H3.004L3,26.413h22.15h0.052c0.37,0.013,0.603,0.327,0.597,0.667  c-0.013,0.303-0.263,0.625-0.594,0.625l-0.045-0.007H8.968v1.79h15.969h0.333c0.302,0,0.557,0.374,0.557,0.674  c0,0.302-0.262,0.629-0.559,0.629H24.937z M32.71,15.192c0.671,0,1.13,0.209,1.503,0.38c0.78,0.373,1.691,0.794,2.832,1.343  c0,0.005,1.844-1.304,1.939-1.369c0.625-0.432,1.229-0.104,1.426,0.262c0.687,1.297,1.956,3.984,2.622,6.449  c0.082,0.295-0.011,0.753-0.475,0.89c-0.267,0.081-0.73,0.145-1.203,0.21c-0.67,0.08-0.656,0.616-0.656,0.945  c0,0.399,0.008,3.118,0.008,4.05c0.013,0.568-0.425,2.437-2.58,2.431c-0.14,0-4.931,0-4.908,0c-1.858,0.005-3.354-1.56-3.364-3.231  c0-1.101,0-8.75,0.005-9.608C29.865,16.286,31.352,15.173,32.71,15.192z M14.925,36.917l-0.002,1.816c0,0,2.405,0,3.771,0  c3.375-0.025,5.585-1.816,5.585-1.816H14.925z"/>
<path fill-rule="evenodd" clip-rule="evenodd" fill="#FFFFFF" d="M188.15,22.879c0-0.033-0.013-0.059-0.013-0.099  c-0.06-1.383-0.514-2.622-1.146-3.572c-1.333-2.104-3.669-3.246-6.477-3.205c-2.804-0.041-5.145,1.101-6.47,3.205  c-0.636,0.95-1.098,2.188-1.157,3.572c0,0.04-0.006,0.066-0.01,0.099c-0.387,4.621,2.289,7.819,6.838,8.192  c0.273,0.021,0.531,0.034,0.799,0.034c0.257,0,0.523-0.013,0.797-0.034C185.86,30.699,188.534,27.5,188.15,22.879 M157.901,19.438  c0-1.14,0.111-3.158,0.111-3.158h-3.731c0,0,0.108,2.019,0.108,3.158l-0.011,8.246c0,1.141-0.098,3.092-0.098,3.092h0.006h3.711  h0.015c0,0-0.104-1.951-0.104-3.092L157.901,19.438z M136.112,28.535c-0.778,0-1.802,0-2.588,0c-0.041-1.456-0.06-2.863-0.06-4.142  v-0.197c0-0.012,0-0.025,0-0.039h4.302v-2.044h-4.302c0.015-2.203,0.06-3.657,0.06-3.657l5.338-0.007V16.28  c-3.736,0.014-9.135,0-9.135,0s0.084,2.005,0.084,3.139v8.231c0,1.043-0.063,2.826-0.077,3.121h9.479l0.012-2.3  C139.226,28.471,137.358,28.535,136.112,28.535z M73.933,28.535c-0.781,0-1.8,0-2.594,0c-0.033-1.456-0.052-2.863-0.055-4.142  l-0.004-0.197h0.004c0-0.012,0-0.025,0-0.039h4.309v-2.044h-4.306c0.013-2.203,0.052-3.657,0.052-3.657h5.354V16.28  c-3.744,0.014-9.14,0-9.14,0s0.081,2.005,0.081,3.139v8.231c0,1.043-0.064,2.826-0.081,3.121h9.487l0.01-2.3  C77.049,28.471,75.18,28.535,73.933,28.535z M148.32,22.979l4.117-6.699h-2.848l-0.032,0.065c-0.857,1.508-1.935,3.329-2.357,3.998  l-0.167,0.275l-2.388-4.338h-4.287l4.132,7.498l-4.31,6.998h2.837c1.836-3.17,2.777-4.631,2.777-4.631l2.56,4.631h4.278  L148.32,22.979z M169.535,28.798c-3.315,0-5.106-2.465-5.017-5.493c0.081-2.648,1.28-4.889,4.121-5.085  c1.098-0.073,1.984,0.116,3.518,0.531l-0.156-2.261c0,0-1.299-0.422-3.159-0.486c-2.361-0.099-4.504,0.367-6.21,1.953  c-1.519,1.403-2.428,3.5-2.428,5.518c0,2.249,0.915,4.312,2.626,5.741c1.782,1.523,3.694,1.863,5.968,1.863  c1.491,0,2.367-0.099,3.813-0.499l-0.221-2.214C172.084,28.471,171.044,28.798,169.535,28.798z M121.625,14.11l4.158-0.006  l0.112,0.97c0.932,9.687,1.497,15.701,1.497,15.701h-4.327l-0.42-5.996l-0.399-5.361l-3.666,11.352c-0.973,0.004-2.322,0-2.322,0  s-1.157-4.032-1.363-4.595l-2.102-6.816c0,0-0.331,3.8-0.453,5.419c-0.255,3.245-0.475,5.996-0.475,5.996h-3.225  c0,0,1.316-13.552,1.415-14.377c0.098-0.852,0.26-2.288,0.26-2.288h4.243l3.523,9.759L121.625,14.11z M106.895,22.898  c0-0.032-0.006-0.064-0.006-0.096c-0.066-1.377-0.513-2.602-1.149-3.56c-1.33-2.099-3.652-3.226-6.447-3.192  c-2.797-0.033-5.12,1.096-6.443,3.192c-0.635,0.958-1.083,2.182-1.151,3.56c0,0.032-0.003,0.064-0.009,0.096  c-0.38,4.602,2.281,7.795,6.809,8.154c0.27,0.027,0.533,0.032,0.795,0.027c0.26,0.005,0.525,0,0.795-0.027  C104.618,30.693,107.271,27.5,106.895,22.898z M99.647,28.889c-0.126,0.014-0.239,0.014-0.354,0.02  c-0.115-0.005-0.23-0.005-0.351-0.02c-0.667-0.064-1.187-0.295-1.663-0.668c-0.134-0.117-0.27-0.236-0.403-0.393  c-0.697-0.793-1.074-2.15-1.161-3.211c-0.209-2.49,0.285-6.122,3.315-6.371c0.073-0.005,0.152-0.014,0.227-0.014  c0.006,0,0.023,0,0.035,0c0.013,0,0.021,0,0.033,0c0.078,0,0.157,0.008,0.229,0.014c3.028,0.25,3.521,3.881,3.314,6.371  c-0.082,1.061-0.422,2.392-1.162,3.211c-0.13,0.157-0.26,0.276-0.396,0.393C100.828,28.594,100.263,28.843,99.647,28.889z   M66.654,30.771c-0.127-0.295-0.897-2.137-1.46-3.625L60.346,14.11h-3.772c0,0-1.082,3.054-1.234,3.559l-3.542,10.105  c-0.459,1.3-1.1,3.001-1.1,3.001h3.08c0,0,0.87-2.817,1.05-3.32l0.475-1.411h5.339l0.728,2.151c0.152,0.393,0.785,2.543,0.795,2.576  H66.654z M56.08,23.673l1.801-5.388l0.104-0.321l1.879,5.709H56.08z M91.884,30.775c-0.892-1.296-1.222-1.833-1.907-2.776  l-2.569-4.045c1.235-0.608,2.398-1.646,2.569-3.809c0.111-1.356-0.599-2.477-1.028-2.857c-0.62-0.563-1.228-0.785-2.08-0.89  c-0.684-0.091-1.185-0.091-1.596-0.126h-6.057c0,0,0.07,2.013,0.07,3.152v8.194c0,1.153-0.07,3.153-0.07,3.153h3.724  c0,0-0.111-2-0.111-3.153l0.026-2.63c0,0,0.815,0.008,1.383,0.008l2.361,4.364c0.321,0.552,0.772,1.252,0.883,1.415H91.884z   M85.295,22.683c-0.56,0.295-1.817,0.21-2.441,0.178l0.05-4.144l0.35-0.033c1.139-0.085,1.974,0.073,2.32,0.23  c0.512,0.223,0.812,0.708,0.844,1.525C86.455,21.668,85.997,22.317,85.295,22.683z M188.02,29.321c0-0.812,0.662-1.487,1.482-1.487  c0.816,0,1.479,0.675,1.479,1.487c0,0.828-0.662,1.495-1.479,1.495C188.682,30.815,188.02,30.148,188.02,29.321z M190.624,29.321  c0-0.694-0.5-1.204-1.122-1.204c-0.618,0-1.118,0.51-1.118,1.204c0,0.709,0.5,1.207,1.118,1.207  C190.124,30.527,190.624,30.03,190.624,29.321z M188.929,28.477h0.624c0.402,0,0.617,0.137,0.617,0.491  c0,0.29-0.163,0.434-0.43,0.46l0.442,0.74h-0.317l-0.431-0.729h-0.192v0.729h-0.313V28.477z M189.242,29.198h0.277  c0.183,0,0.346-0.02,0.346-0.255c0-0.198-0.184-0.223-0.346-0.223h-0.277V29.198z M180.865,28.903  c-0.119,0.013-0.241,0.013-0.35,0.013c-0.112,0-0.235,0-0.353-0.013c-0.669-0.065-1.194-0.301-1.674-0.682  c-0.136-0.117-0.272-0.236-0.401-0.387c-0.701-0.799-1.077-2.162-1.167-3.231c-0.209-2.503,0.29-6.154,3.327-6.396  c0.077-0.013,0.155-0.013,0.232-0.013c0.009,0,0.021,0,0.035,0c0.01,0,0.023,0,0.031,0c0.077,0,0.154,0,0.226,0.013  c3.046,0.242,3.543,3.893,3.336,6.396c-0.085,1.069-0.428,2.405-1.162,3.231c-0.136,0.151-0.271,0.27-0.401,0.387  C182.059,28.602,181.486,28.849,180.865,28.903z"/>
<path fill-rule="evenodd" clip-rule="evenodd" fill="#FFFFFF" d="M225.167,6.2c0-0.373,0.304-0.683,0.678-0.683  c0.376,0,0.679,0.31,0.679,0.683c0,0.379-0.303,0.685-0.679,0.685C225.471,6.884,225.167,6.579,225.167,6.2 M226.36,6.2  c0-0.318-0.229-0.552-0.516-0.552c-0.28,0-0.51,0.234-0.51,0.552c0,0.324,0.229,0.552,0.51,0.552  C226.131,6.751,226.36,6.524,226.36,6.2z M225.586,5.812h0.283c0.186,0,0.283,0.063,0.283,0.225c0,0.132-0.074,0.2-0.196,0.212  l0.203,0.338h-0.146l-0.196-0.333h-0.089v0.333h-0.142V5.812z M225.728,6.143h0.128c0.083,0,0.157-0.009,0.157-0.117  c0-0.091-0.084-0.102-0.157-0.102h-0.128V6.143z"/>
<path fill-rule="evenodd" clip-rule="evenodd" fill="#0071CE" d="M141.438,38.652c-0.858-0.369-1.887-0.654-2.747-0.654  c-3.106,0-4.849,2.254-4.849,5.386c0,2.923,1.761,5.375,4.665,5.375c1.01,0,1.948-0.221,2.91-0.575l0.15,1.486  c-1.086,0.374-2.097,0.45-3.308,0.45c-4.143,0-6.162-3.157-6.162-6.736c0-3.965,2.551-6.75,6.363-6.75  c1.54,0,2.647,0.354,3.106,0.512L141.438,38.652z"/>
<path fill-rule="evenodd" clip-rule="evenodd" fill="#0071CE" d="M151.164,47.749h-0.048c-0.714,1.541-2.502,2.371-4.096,2.371  c-3.662,0-4.24-2.478-4.24-3.639c0-4.318,4.596-4.514,7.932-4.514h0.302v-0.655c0-2.202-0.787-3.314-2.938-3.314  c-1.337,0-2.596,0.309-3.787,1.066v-1.54c0.989-0.483,2.653-0.891,3.787-0.891c3.186,0,4.522,1.44,4.522,4.804v5.683  c0,1.036,0,1.816,0.124,2.7h-1.558V47.749z M151.014,43.331h-0.453c-2.759,0-6.046,0.278-6.046,3.106  c0,1.692,1.222,2.321,2.683,2.321c3.737,0,3.816-3.259,3.816-4.647V43.331z"/>
<path fill-rule="evenodd" clip-rule="evenodd" fill="#0071CE" d="M155.882,39.82c0-1.418,0-1.941-0.099-2.884h1.595v2.483h0.045  c0.584-1.447,1.669-2.785,3.311-2.785c0.38,0,0.837,0.081,1.107,0.158v1.663c-0.329-0.104-0.754-0.148-1.161-0.148  c-2.523,0-3.204,2.824-3.204,5.15v6.363h-1.594V39.82z"/>
<path fill-rule="evenodd" clip-rule="evenodd" fill="#0071CE" d="M173.99,48.759c0,3.592-1.619,6.516-6.028,6.516  c-1.696,0-3.246-0.479-3.894-0.683l0.126-1.586c0.981,0.498,2.397,0.905,3.777,0.905c4.1,0,4.453-2.978,4.453-6.615h-0.054  c-0.853,1.868-2.273,2.524-3.913,2.524c-4.115,0-5.425-3.586-5.425-6.437c0-3.917,1.515-6.75,5.303-6.75  c1.716,0,2.821,0.234,4.009,1.769h0.054v-1.466h1.592V48.759z M168.485,48.456c2.884,0,3.913-2.726,3.913-5.072  c0-3.107-0.911-5.386-3.81-5.386c-3.034,0-3.819,2.884-3.819,5.386C164.77,45.901,165.785,48.456,168.485,48.456z"/>
<path fill-rule="evenodd" clip-rule="evenodd" fill="#0071CE" d="M182.345,36.634c4.171,0,6.013,3.238,6.013,6.75  c0,3.507-1.842,6.736-6.013,6.736c-4.161,0-6.01-3.229-6.01-6.736C176.335,39.872,178.184,36.634,182.345,36.634 M182.345,48.759  c2.78,0,4.267-2.398,4.267-5.375c0-2.987-1.486-5.386-4.267-5.386c-2.769,0-4.263,2.398-4.263,5.386  C178.082,46.36,179.573,48.759,182.345,48.759z"/>
</svg>